<svg width="403" height="81" viewBox="0 0 403 81" fill="none" xmlns="http://www.w3.org/2000/svg">
<mask id="mask0_227_10929" style="mask-type:luminance" maskUnits="userSpaceOnUse" x="0" y="0" width="403" height="81">
<path d="M402.26 0.800049H0V80.8H402.26V0.800049Z" fill="white"/>
</mask>
<g mask="url(#mask0_227_10929)">
<path d="M220.943 32.4832V42.4662C220.928 45.3106 222.04 48.0453 224.036 50.0721C226.032 52.099 228.749 53.2531 231.593 53.2822H254.057V46.6262H232.757C232.624 46.6315 232.492 46.6093 232.368 46.561C232.244 46.5126 232.132 46.4391 232.038 46.3452C231.944 46.2512 231.871 46.1388 231.822 46.0151C231.774 45.8913 231.752 45.7589 231.757 45.6262V29.9872C231.757 29.3202 232.09 28.8202 232.757 28.8202H254.057V21.8332H231.593C230.189 21.8149 228.796 22.0779 227.496 22.6066C226.196 23.1354 225.014 23.9191 224.022 24.9118C223.029 25.9044 222.245 27.0857 221.716 28.3861C221.188 29.6864 220.925 31.0795 220.943 32.4832Z" fill="#0052A3"/>
<path d="M218.448 21.667H205.798L200.806 27.492C200.165 28.1304 199.297 28.4889 198.392 28.4889C197.488 28.4889 196.62 28.1304 195.979 27.492L190.987 21.667H178.507L190.155 34.979C190.479 35.2972 190.733 35.6792 190.901 36.1008C191.069 36.5224 191.148 36.9743 191.133 37.428C191.117 37.8816 191.007 38.3271 190.81 38.7361C190.614 39.1451 190.334 39.5088 189.989 39.804L178.512 53.283H190.992L195.984 47.461C196.664 46.8811 197.536 46.5767 198.43 46.6074C199.323 46.6381 200.172 47.0018 200.811 47.627L205.803 53.45H218.448L206.798 39.972C206.159 39.3314 205.8 38.4634 205.8 37.5585C205.8 36.6536 206.159 35.7856 206.798 35.145L218.448 21.667Z" fill="#0052A3"/>
<path d="M164.867 21.6689H155.883H148.227C141.739 21.6689 136.415 26.4949 136.415 32.4859V42.4669C136.415 48.4559 141.738 53.2829 148.227 53.2829H164.536C165.982 53.326 167.422 53.0744 168.768 52.5435C170.113 52.0126 171.337 51.2134 172.364 50.1946C173.392 49.1759 174.201 47.9588 174.743 46.6174C175.285 45.276 175.548 43.8384 175.517 42.3919V32.3399C175.568 30.9268 175.327 29.5184 174.81 28.2023C174.293 26.8862 173.51 25.6906 172.511 24.6897C171.512 23.6889 170.318 22.9042 169.003 22.3845C167.688 21.8648 166.28 21.6213 164.867 21.6689ZM155.883 46.2919H148.227C147.942 46.3067 147.662 46.2111 147.445 46.0249C147.228 45.8387 147.091 45.5763 147.063 45.2919V29.6549C147.059 29.501 147.087 29.348 147.144 29.205C147.201 29.0621 147.287 28.9322 147.396 28.8233C147.504 28.7144 147.634 28.6287 147.777 28.5714C147.92 28.5141 148.073 28.4864 148.227 28.4899H163.537C164.201 28.4899 164.703 28.8249 164.703 29.4899L164.536 45.2809C164.506 45.5651 164.369 45.8272 164.152 46.0132C163.935 46.1992 163.655 46.295 163.37 46.2809L155.883 46.2919Z" fill="#0052A3"/>
<path d="M98.64 32.317V53.448H109.29V43.626C109.269 43.2926 109.32 42.9586 109.439 42.6462C109.557 42.3339 109.741 42.0503 109.977 41.8143C110.213 41.5784 110.497 41.3954 110.81 41.2776C111.123 41.1598 111.457 41.1098 111.79 41.131H130.09V35.645H110.29C110.006 35.6156 109.743 35.4782 109.557 35.2611C109.371 35.0439 109.275 34.7636 109.29 34.478V29.826C109.275 29.5403 109.371 29.2599 109.557 29.0427C109.743 28.8255 110.005 28.6881 110.29 28.659H131.756V21.667H108.626C103.137 21.667 98.642 26.325 98.642 32.317" fill="#0052A3"/>
<path d="M331.1 21.667H302.812V53.283H313.462V29.653C313.456 29.5201 313.478 29.3875 313.526 29.2635C313.574 29.1396 313.648 29.027 313.742 28.933C313.836 28.8389 313.949 28.7655 314.073 28.7173C314.197 28.6691 314.329 28.6472 314.462 28.653H330.104C330.363 28.6705 330.608 28.7815 330.792 28.9654C330.975 29.1493 331.086 29.3936 331.104 29.653V53.283H341.754V32.316C341.65 29.5247 340.495 26.8758 338.52 24.9008C336.544 22.9257 333.895 21.7706 331.104 21.667" fill="#0052A3"/>
<path d="M375.195 21.501H346.908V53.117H357.558V29.654C357.575 29.3945 357.686 29.1501 357.87 28.9662C358.054 28.7822 358.298 28.6713 358.558 28.654H374.198C374.457 28.6713 374.702 28.7822 374.886 28.9662C375.07 29.1501 375.181 29.3945 375.198 29.654V53.283H385.848V32.15C385.772 29.3493 384.626 26.6842 382.645 24.7033C380.664 22.7223 377.999 21.5762 375.198 21.501" fill="#0052A3"/>
<path d="M287.15 21.6689H278.166H270.51C264.021 21.6689 258.697 26.4949 258.697 32.4859V42.4669C258.697 48.4559 264.02 53.2829 270.51 53.2829H286.817C288.263 53.3264 289.703 53.0751 291.05 52.5444C292.396 52.0137 293.62 51.2146 294.647 50.1958C295.675 49.1769 296.484 47.9597 297.027 46.6181C297.569 45.2765 297.832 43.8386 297.801 42.3919V32.3399C297.851 30.9268 297.61 29.5183 297.093 28.2022C296.576 26.8861 295.794 25.6905 294.795 24.6897C293.796 23.6888 292.602 22.9042 291.286 22.3845C289.971 21.8649 288.563 21.6213 287.15 21.6689ZM278.166 46.2919H270.51C270.225 46.307 269.944 46.2114 269.728 46.0252C269.511 45.839 269.374 45.5763 269.346 45.2919V29.6549C269.342 29.501 269.37 29.348 269.427 29.205C269.484 29.0621 269.57 28.9322 269.679 28.8233C269.787 28.7144 269.917 28.6287 270.06 28.5714C270.203 28.5141 270.356 28.4864 270.51 28.4899H285.82C286.485 28.4899 286.985 28.8249 286.985 29.4899L286.818 45.2899C286.788 45.5738 286.651 45.8355 286.435 46.0215C286.218 46.2074 285.939 46.3035 285.654 46.2899L278.166 46.2919Z" fill="#0052A3"/>
<path d="M393.577 21.9851H397.322C397.844 21.9673 398.364 22.059 398.848 22.2541C399.213 22.4114 399.52 22.6794 399.725 23.0203C399.93 23.3611 400.022 23.7577 399.99 24.1541C400.006 24.5697 399.9 24.981 399.683 25.3361C399.467 25.6523 399.172 25.9067 398.828 26.0741C399.11 26.1737 399.36 26.3462 399.553 26.5741C399.744 26.8766 399.838 27.2297 399.825 27.5871L399.866 28.6681C399.867 28.8975 399.893 29.1262 399.943 29.3501C399.96 29.4548 400.001 29.5541 400.063 29.6399C400.126 29.7257 400.208 29.7957 400.302 29.8441V30.0261H398.935C398.892 29.9407 398.862 29.8498 398.845 29.7561C398.814 29.5456 398.795 29.3336 398.788 29.1211L398.721 27.7801C398.734 27.5665 398.685 27.3538 398.582 27.1664C398.479 26.979 398.325 26.8246 398.138 26.7211C397.827 26.6056 397.496 26.5552 397.165 26.5731H394.693V30.0331H393.577V21.9851ZM397.202 25.6731C397.627 25.6957 398.05 25.5882 398.413 25.3651C398.573 25.2319 398.697 25.0611 398.774 24.868C398.851 24.675 398.88 24.4657 398.856 24.2591C398.881 24.024 398.835 23.7869 398.724 23.5781C398.613 23.3694 398.442 23.1984 398.234 23.0871C397.954 22.9655 397.651 22.9091 397.346 22.9221H394.693V25.6731H397.202Z" fill="#0052A3"/>
<path d="M396.451 31.821C395.301 31.8216 394.177 31.4813 393.221 30.843C392.265 30.2047 391.52 29.2972 391.079 28.2353C390.639 27.1733 390.523 26.0046 390.747 24.877C390.971 23.7494 391.525 22.7135 392.337 21.9004C393.15 21.0873 394.186 20.5334 395.313 20.3089C396.441 20.0844 397.609 20.1993 398.671 20.6392C399.734 21.079 400.642 21.8239 401.28 22.7797C401.919 23.7356 402.26 24.8594 402.26 26.009C402.259 27.5495 401.646 29.0266 400.557 30.1162C399.468 31.2058 397.992 31.8189 396.451 31.821ZM396.451 20.612C395.383 20.612 394.339 20.9287 393.451 21.5221C392.563 22.1154 391.871 22.9588 391.462 23.9455C391.053 24.9323 390.946 26.018 391.155 27.0655C391.363 28.113 391.877 29.0752 392.633 29.8304C393.388 30.5856 394.35 31.0999 395.398 31.3083C396.445 31.5166 397.531 31.4097 398.517 31.001C399.504 30.5923 400.348 29.9001 400.941 29.0121C401.534 28.1241 401.851 27.08 401.851 26.012C401.851 24.5799 401.282 23.2063 400.269 22.1936C399.257 21.181 397.883 20.612 396.451 20.612Z" fill="#0052A3"/>
<path d="M98.0911 78.9351V66.0061H99.8911V71.3161H106.966V66.0061H108.766V78.9351H106.966V72.8441H99.8921V78.9351H98.0911Z" fill="#0052A3"/>
<path d="M108.962 79.129H106.774V73.036H100.086V79.129H97.897V65.814H100.086V71.122H106.774V65.814H108.962V79.129ZM107.162 78.742H108.575V66.197H107.162V71.504H99.7V66.197H98.283V78.742H99.7V72.649H107.162V78.742Z" fill="#0052A3"/>
<path d="M111.221 72.6391C111.167 71.7194 111.301 70.7983 111.613 69.9317C111.926 69.0652 112.412 68.2712 113.041 67.5981C113.659 66.9903 114.395 66.5152 115.203 66.2022C116.011 65.8893 116.875 65.7449 117.741 65.7781C118.93 65.7595 120.102 66.0544 121.141 66.6331C122.129 67.1826 122.931 68.0125 123.447 69.0181C123.99 70.0932 124.263 71.2847 124.241 72.4891C124.263 73.714 123.976 74.9247 123.406 76.0091C122.876 77.0163 122.05 77.8365 121.039 78.3591C120.018 78.8903 118.883 79.1648 117.732 79.1591C116.528 79.1795 115.341 78.8751 114.296 78.2781C113.314 77.7161 112.517 76.8791 112.005 75.8701C111.49 74.8727 111.222 73.7658 111.225 72.6431M113.081 72.6691C113.044 73.3401 113.142 74.0117 113.37 74.6441C113.597 75.2765 113.949 75.857 114.404 76.3511C115.299 77.2162 116.496 77.6986 117.741 77.6962C118.986 77.6938 120.181 77.2067 121.073 76.3381C122.004 75.278 122.476 73.8919 122.386 72.4841C122.407 71.5345 122.215 70.5923 121.823 69.7271C121.47 68.9695 120.898 68.3349 120.181 67.9051C119.448 67.4677 118.607 67.2427 117.753 67.2551C116.536 67.233 115.357 67.6798 114.46 68.5031C113.54 69.3358 113.081 70.7248 113.082 72.6701" fill="#0052A3"/>
<path d="M117.728 79.351C116.49 79.3702 115.27 79.0558 114.195 78.441C113.181 77.8595 112.358 76.9954 111.827 75.954C111.3 74.9287 111.025 73.792 111.027 72.639C110.975 71.6941 111.115 70.7484 111.438 69.8588C111.76 68.9692 112.259 68.154 112.905 67.462C113.541 66.8376 114.298 66.3494 115.129 66.027C115.959 65.7047 116.847 65.5549 117.738 65.587C118.959 65.5706 120.163 65.8729 121.232 66.464C122.253 67.0322 123.083 67.8908 123.615 68.931C124.16 70.0487 124.439 71.2769 124.432 72.5202C124.425 73.7635 124.132 74.9885 123.575 76.1C123.025 77.1412 122.169 77.9896 121.124 78.532C120.074 79.0765 118.907 79.3575 117.724 79.351M117.733 65.97C116.893 65.9393 116.056 66.08 115.272 66.3835C114.488 66.6869 113.774 67.1468 113.174 67.735C112.566 68.3913 112.096 69.1634 111.793 70.0053C111.489 70.8472 111.359 71.7416 111.409 72.635C111.409 73.7271 111.669 74.8035 112.168 75.775C112.666 76.7491 113.436 77.5576 114.385 78.102C115.401 78.681 116.554 78.9769 117.723 78.959C118.843 78.9652 119.947 78.6985 120.94 78.182C121.916 77.6749 122.714 76.8823 123.228 75.91C123.779 74.8536 124.059 73.6765 124.041 72.485C124.061 71.3112 123.795 70.1503 123.266 69.102C122.766 68.132 121.991 67.3317 121.037 66.802C120.029 66.2406 118.891 65.9534 117.737 65.969M117.719 77.884C117.077 77.9002 116.439 77.7842 115.845 77.5434C115.25 77.3025 114.711 76.942 114.261 76.484C113.789 75.9714 113.423 75.3694 113.187 74.7135C112.951 74.0577 112.848 73.3612 112.885 72.665C112.885 70.67 113.369 69.22 114.324 68.353C115.258 67.5007 116.483 67.0381 117.747 67.06C118.636 67.0478 119.511 67.2818 120.275 67.736C121.025 68.1828 121.624 68.8447 121.994 69.636C122.395 70.5284 122.593 71.4988 122.572 72.477C122.662 73.9352 122.172 75.3699 121.208 76.468C120.756 76.9325 120.213 77.2981 119.612 77.5415C119.011 77.7849 118.367 77.9008 117.719 77.882M117.746 67.44C116.578 67.4202 115.446 67.8497 114.585 68.64C113.712 69.427 113.271 70.782 113.271 72.66C113.236 73.3056 113.329 73.9517 113.547 74.5606C113.764 75.1695 114.101 75.7289 114.537 76.206C115.396 77.0329 116.542 77.494 117.735 77.4921C118.927 77.4903 120.072 77.0256 120.928 76.196C121.821 75.1699 122.273 73.8326 122.185 72.475C122.207 71.555 122.022 70.6418 121.643 69.803C121.306 69.0779 120.76 68.4701 120.075 68.058C119.37 67.6426 118.565 67.4278 117.747 67.437" fill="#0052A3"/>
<path d="M126.542 78.9351V66.0061H128.392L135.537 76.1591V66.0061H137.264V78.9351H135.417L128.267 68.7781V78.9351H126.542Z" fill="#0052A3"/>
<path d="M137.458 79.129H135.316L135.258 79.048L128.458 69.389V79.129H126.342V65.814H128.485L128.545 65.895L135.345 75.545V65.814H137.458V79.129ZM135.518 78.742H137.073V66.197H135.731V76.77L128.288 66.197H126.731V78.742H128.07V68.164L135.518 78.742Z" fill="#0052A3"/>
<path d="M145.632 78.9351V66.0061H147.432V71.3161H154.507V66.0061H156.307V78.9351H154.507V72.8441H147.432V78.9351H145.632Z" fill="#0052A3"/>
<path d="M156.503 79.129H154.317V73.036H147.627V79.129H145.44V65.814H147.628V71.122H154.318V65.814H156.504L156.503 79.129ZM154.703 78.742H156.118V66.197H154.702V71.504H147.242V66.197H145.826V78.742H147.242V72.649H154.702L154.703 78.742Z" fill="#0052A3"/>
<path d="M157.816 78.9351L163.037 66.0071H164.977L170.551 78.9351H168.497L166.909 75.0181H161.218L159.718 78.9351H157.816ZM161.742 73.6271H166.357L164.937 70.0451C164.503 68.9571 164.181 68.0634 163.971 67.3641C163.793 68.2058 163.548 69.0318 163.237 69.8341L161.742 73.6271Z" fill="#0052A3"/>
<path d="M170.852 79.13H168.372L168.321 79.009L166.784 75.209H161.355L159.86 79.126H157.527L162.91 65.811H165.11L170.852 79.13ZM168.632 78.743H170.259L164.859 66.201H163.179L158.109 78.743H159.599L161.099 74.826H167.055L167.103 74.946L168.632 78.743ZM166.643 73.819H161.458L163.058 69.763C163.366 68.9721 163.607 68.1569 163.78 67.326L163.936 66.582L164.156 67.309C164.367 68.009 164.692 68.902 165.118 69.974L166.643 73.819ZM162.028 73.432H166.073L164.758 70.117C164.458 69.35 164.199 68.674 164.002 68.092C163.842 68.7063 163.648 69.311 163.419 69.903L162.028 73.432Z" fill="#0052A3"/>
<path d="M174.102 66.009H172.298V78.937H174.102V66.009Z" fill="#0052A3"/>
<path d="M174.293 79.129H172.106V65.814H174.294L174.293 79.129ZM172.493 78.742H173.908V66.197H172.493V78.742Z" fill="#0052A3"/>
<path d="M185.681 78.9351V67.5351H181.196V66.0061H191.986V67.5341H187.486V78.9341L185.681 78.9351Z" fill="#0052A3"/>
<path d="M187.677 79.129H185.488V67.729H181V65.814H192.176V67.725H187.676L187.677 79.129ZM185.877 78.742H187.293V67.342H191.793V66.197H181.393V67.334H185.877V78.742Z" fill="#0052A3"/>
<path d="M193.871 78.9351V66.0061H203.712V67.5341H195.67V71.4921H203.2V73.0101H195.67V77.4101H204.026V78.9341L193.871 78.9351Z" fill="#0052A3"/>
<path d="M204.219 79.129H193.677V65.814H203.905V67.725H195.864V71.297H203.395V73.197H195.864V77.211H204.221L204.219 79.129ZM194.064 78.742H203.835V77.597H195.479V72.814H203.008V71.686H195.479V67.338H203.521V66.197H194.064V78.742Z" fill="#0052A3"/>
<path d="M216.229 74.4032L218.029 74.8392C217.736 76.1116 217.017 77.2456 215.991 78.0532C214.947 78.811 213.68 79.1997 212.391 79.1582C211.142 79.2118 209.903 78.9183 208.811 78.3102C207.874 77.7229 207.141 76.8616 206.711 75.8432C206.228 74.7514 205.983 73.5691 205.993 72.3752C205.964 71.1516 206.244 69.9404 206.806 68.8532C207.324 67.8727 208.131 67.0751 209.118 66.5682C210.138 66.0442 211.271 65.7765 212.418 65.7882C213.638 65.7473 214.841 66.0931 215.853 66.7762C216.798 67.4536 217.485 68.4326 217.8 69.5522L216.025 69.9522C215.797 69.139 215.316 68.4196 214.652 67.8982C213.984 67.449 213.19 67.2239 212.385 67.2552C211.459 67.223 210.545 67.4723 209.763 67.9702C209.073 68.4301 208.554 69.104 208.285 69.8882C208 70.685 207.856 71.5251 207.858 72.3712C207.836 73.3547 208.007 74.3329 208.363 75.2502C208.661 76.025 209.217 76.6734 209.938 77.0862C210.64 77.491 211.436 77.7022 212.246 77.6982C213.171 77.7261 214.077 77.4332 214.811 76.8692C215.556 76.2382 216.058 75.3673 216.231 74.4062" fill="#0052A3"/>
<path d="M212.394 79.35C211.11 79.4022 209.836 79.0983 208.713 78.472C207.745 77.8635 206.986 76.9733 206.539 75.921C206.045 74.8045 205.794 73.5959 205.801 72.375C205.773 71.1185 206.06 69.875 206.636 68.758C207.176 67.745 208.012 66.9199 209.031 66.392C210.079 65.8557 211.242 65.5813 212.419 65.592C213.68 65.5513 214.922 65.9093 215.968 66.615C216.944 67.3201 217.654 68.3336 217.983 69.492L218.045 69.692L215.895 70.173L215.839 70.013C215.622 69.2388 215.167 68.5522 214.539 68.05C213.904 67.6261 213.15 67.4137 212.387 67.443C211.5 67.413 210.624 67.6506 209.874 68.125C209.219 68.5629 208.724 69.2031 208.466 69.948C208.189 70.7237 208.048 71.5413 208.048 72.365C208.029 73.3228 208.195 74.2753 208.538 75.17C208.822 75.9047 209.349 76.5196 210.032 76.912C210.705 77.3009 211.469 77.5038 212.246 77.5C213.127 77.5264 213.99 77.2476 214.689 76.711C215.398 76.1064 215.877 75.2751 216.043 74.358L216.083 74.166L218.271 74.689L218.218 74.884C217.914 76.1987 217.171 77.3705 216.111 78.206C215.032 78.9863 213.726 79.3885 212.395 79.35M212.422 65.979C211.306 65.9669 210.204 66.2267 209.211 66.736C208.261 67.2279 207.483 67.9969 206.979 68.941C206.434 70.0013 206.163 71.1811 206.191 72.373C206.182 73.5376 206.42 74.6908 206.891 75.756C207.306 76.7384 208.012 77.5698 208.914 78.138C209.975 78.7274 211.178 79.0119 212.39 78.96C213.637 78.9977 214.861 78.6219 215.871 77.891C216.81 77.1532 217.482 76.1284 217.785 74.973L216.367 74.632C216.165 75.564 215.658 76.4021 214.926 77.014C214.157 77.6016 213.209 77.9079 212.241 77.882C211.399 77.8863 210.57 77.6683 209.839 77.25C209.082 76.8151 208.497 76.1339 208.181 75.32C207.817 74.3783 207.641 73.3744 207.662 72.365C207.661 71.4972 207.809 70.6357 208.1 69.818C208.386 68.996 208.932 68.2897 209.655 67.806C210.468 67.2844 211.421 67.0225 212.387 67.055C213.231 67.0234 214.064 67.2623 214.763 67.737C215.418 68.2395 215.903 68.9314 216.152 69.719L217.552 69.407C217.231 68.4106 216.601 67.5428 215.752 66.93C214.772 66.272 213.609 65.9389 212.429 65.978" fill="#0052A3"/>
<path d="M220.305 78.9351V66.0061H222.105V71.3161H229.18V66.0061H230.98V78.9351H229.18V72.8441H222.105V78.9351H220.305Z" fill="#0052A3"/>
<path d="M231.177 79.129H228.991V73.036H222.301V79.129H220.114V65.814H222.302V71.122H228.992V65.814H231.177V79.129ZM229.377 78.742H230.792V66.197H229.377V71.504H221.917V66.197H220.499V78.742H221.917V72.649H229.377V78.742Z" fill="#0052A3"/>
<path d="M233.962 78.9351V66.0061H235.807L242.96 76.1591V66.0061H244.687V78.9351H242.841L235.689 68.7781V78.9351H233.962Z" fill="#0052A3"/>
<path d="M244.881 79.129H242.741L242.683 79.048L235.883 69.389V79.129H233.767V65.814H235.91L235.97 65.895L242.77 75.545V65.814H244.883L244.881 79.129ZM242.941 78.742H244.496V66.197H243.155V76.77L235.712 66.197H234.158V78.742H235.497V68.164L242.941 78.742Z" fill="#0052A3"/>
<path d="M247.166 72.6391C247.112 71.7194 247.246 70.7983 247.558 69.9318C247.871 69.0652 248.357 68.2713 248.986 67.5981C249.604 66.9902 250.339 66.5151 251.148 66.2021C251.956 65.8891 252.82 65.7448 253.686 65.7781C254.875 65.7595 256.047 66.0544 257.086 66.6331C258.074 67.1826 258.876 68.0126 259.392 69.0181C259.935 70.0933 260.208 71.2847 260.186 72.4891C260.207 73.7139 259.92 74.9244 259.351 76.0091C258.82 77.0161 257.994 77.8362 256.983 78.3591C255.962 78.8905 254.827 79.1651 253.676 79.1591C252.472 79.1795 251.285 78.8752 250.24 78.2781C249.257 77.7173 248.46 76.8799 247.949 75.8701C247.433 74.873 247.165 73.7659 247.169 72.6431M249.025 72.6691C248.988 73.3401 249.086 74.0117 249.314 74.6441C249.541 75.2765 249.893 75.857 250.348 76.3511C251.243 77.2162 252.44 77.6987 253.685 77.6962C254.93 77.6938 256.125 77.2067 257.017 76.3381C257.948 75.278 258.42 73.892 258.33 72.4841C258.352 71.5344 258.159 70.592 257.766 69.7271C257.414 68.9689 256.842 68.3341 256.124 67.9051C255.391 67.4674 254.551 67.2424 253.697 67.2551C252.48 67.233 251.301 67.6799 250.404 68.5031C249.484 69.3358 249.025 70.7248 249.026 72.6701" fill="#0052A3"/>
<path d="M253.676 79.3512C252.438 79.3703 251.218 79.056 250.143 78.4412C249.129 77.8597 248.306 76.9955 247.775 75.9542C247.247 74.9292 246.972 73.7923 246.975 72.6392C246.924 71.6945 247.063 70.7492 247.385 69.8597C247.707 68.9701 248.206 68.1547 248.85 67.4622C249.486 66.8381 250.243 66.35 251.074 66.0277C251.905 65.7054 252.793 65.5555 253.684 65.5872C254.907 65.5702 256.114 65.8724 257.184 66.4642C258.205 67.0328 259.033 67.8914 259.566 68.9312C260.123 70.0337 260.403 71.2551 260.383 72.4902C260.403 73.7464 260.108 74.9876 259.524 76.1002C258.975 77.1416 258.12 77.9901 257.075 78.5322C256.025 79.0766 254.858 79.3577 253.675 79.3512M253.684 65.9702C252.844 65.9395 252.007 66.0802 251.223 66.3836C250.439 66.687 249.725 67.1469 249.125 67.7352C248.517 68.3914 248.047 69.1636 247.744 70.0055C247.44 70.8474 247.31 71.7417 247.36 72.6352C247.36 73.7273 247.62 74.8037 248.119 75.7752C248.617 76.7498 249.387 77.5584 250.337 78.1022C251.353 78.6813 252.506 78.9773 253.675 78.9592C254.795 78.9653 255.9 78.6986 256.894 78.1822C257.869 77.6749 258.667 76.8823 259.18 75.9102C259.731 74.8536 260.01 73.6765 259.991 72.4852C260.011 71.3115 259.746 70.1506 259.218 69.1022C258.718 68.1322 257.943 67.3319 256.989 66.8022C255.981 66.2408 254.843 65.9535 253.689 65.9692M253.671 77.8842C253.029 77.9004 252.391 77.7845 251.796 77.5437C251.202 77.3029 250.663 76.9422 250.213 76.4842C249.74 75.9716 249.375 75.3697 249.138 74.7139C248.902 74.058 248.798 73.3614 248.835 72.6652C248.835 70.6702 249.319 69.2202 250.276 68.3532C251.21 67.5011 252.434 67.0385 253.698 67.0602C254.587 67.048 255.462 67.2819 256.226 67.7362C256.976 68.1829 257.575 68.8449 257.945 69.6362C258.346 70.5285 258.544 71.499 258.523 72.4772C258.612 73.9356 258.121 75.3703 257.157 76.4682C256.705 76.9328 256.162 77.2984 255.562 77.5418C254.961 77.7853 254.317 77.9012 253.669 77.8822M253.695 67.4432C252.527 67.4233 251.395 67.8529 250.534 68.6432C249.662 69.4302 249.22 70.7852 249.22 72.6632C249.185 73.3087 249.278 73.9549 249.496 74.5637C249.713 75.1726 250.05 75.732 250.486 76.2092C251.344 77.0368 252.49 77.4985 253.683 77.4966C254.875 77.4948 256.02 77.0295 256.875 76.1992C257.769 75.1735 258.223 73.8362 258.136 72.4782C258.157 71.558 257.971 70.6448 257.592 69.8062C257.256 69.0808 256.709 68.473 256.024 68.0612C255.319 67.6455 254.514 67.4308 253.696 67.4402" fill="#0052A3"/>
<path d="M262.432 78.9351V66.0061H264.232V77.4061H270.932V78.9301L262.432 78.9351Z" fill="#0052A3"/>
<path d="M271.131 79.129H262.241V65.814H264.429V77.214H271.129L271.131 79.129ZM262.626 78.742H270.746V77.597H264.046V66.197H262.629L262.626 78.742Z" fill="#0052A3"/>
<path d="M272.537 72.6391C272.483 71.7194 272.617 70.7983 272.929 69.9317C273.242 69.0652 273.728 68.2713 274.357 67.5981C274.975 66.9902 275.711 66.5152 276.519 66.2022C277.327 65.8892 278.191 65.7449 279.057 65.7781C280.246 65.7594 281.419 66.0543 282.457 66.6331C283.445 67.1826 284.247 68.0126 284.763 69.0181C285.306 70.0932 285.579 71.2847 285.557 72.4891C285.578 73.7139 285.291 74.9244 284.722 76.0091C284.192 77.0161 283.366 77.8363 282.355 78.3591C281.334 78.8904 280.199 79.165 279.048 79.1591C277.844 79.1795 276.657 78.8751 275.612 78.2781C274.629 77.7173 273.832 76.8799 273.321 75.8701C272.805 74.873 272.537 73.7659 272.541 72.6431M274.397 72.6691C274.36 73.3401 274.458 74.0117 274.686 74.6441C274.913 75.2765 275.265 75.857 275.72 76.3511C276.615 77.2162 277.812 77.6987 279.057 77.6962C280.302 77.6938 281.497 77.2067 282.389 76.3381C283.32 75.278 283.792 73.892 283.702 72.4841C283.724 71.5344 283.531 70.5919 283.138 69.7271C282.785 68.9682 282.212 68.3331 281.493 67.9041C280.76 67.4665 279.919 67.2415 279.065 67.2541C277.848 67.232 276.669 67.6788 275.772 68.5021C274.852 69.3348 274.393 70.7238 274.394 72.6691" fill="#0052A3"/>
<path d="M279.043 79.3509C277.805 79.3701 276.585 79.0557 275.51 78.4409C274.496 77.8593 273.674 76.9952 273.143 75.9539C272.615 74.9289 272.34 73.792 272.343 72.6389C272.291 71.6941 272.431 70.7486 272.754 69.859C273.076 68.9695 273.575 68.1541 274.22 67.4619C274.856 66.8378 275.612 66.3497 276.443 66.0274C277.274 65.705 278.161 65.5552 279.052 65.5869C280.275 65.5699 281.481 65.8722 282.552 66.4639C283.572 67.0326 284.401 67.8911 284.934 68.9309C285.491 70.0334 285.772 71.2548 285.752 72.4899C285.772 73.7462 285.477 74.9873 284.893 76.0999C284.344 77.1413 283.489 77.9899 282.444 78.5319C281.394 79.0764 280.227 79.3575 279.044 79.3509M279.053 65.9699C278.213 65.9391 277.376 66.0797 276.593 66.3832C275.809 66.6867 275.096 67.1466 274.496 67.7349C273.887 68.3909 273.417 69.1629 273.113 70.0048C272.809 70.8468 272.679 71.7413 272.729 72.6349C272.729 73.727 272.989 74.8034 273.488 75.7749C273.985 76.7494 274.756 77.558 275.705 78.1019C276.721 78.6811 277.874 78.977 279.043 78.9589C280.163 78.9651 281.268 78.6984 282.262 78.1819C283.237 77.6747 284.035 76.8821 284.548 75.9099C285.099 74.8534 285.377 73.6762 285.359 72.4849C285.379 71.3113 285.114 70.1504 284.586 69.1019C284.086 68.132 283.311 67.3316 282.357 66.8019C281.349 66.2405 280.211 65.9533 279.057 65.9689M279.031 77.8849C278.389 77.9012 277.751 77.7853 277.156 77.5445C276.562 77.3036 276.023 76.943 275.573 76.4849C275.1 75.9723 274.735 75.3704 274.498 74.7145C274.262 74.0587 274.159 73.3622 274.195 72.6659C274.195 70.6709 274.679 69.2209 275.636 68.3539C276.57 67.5016 277.795 67.039 279.059 67.0609C279.948 67.0487 280.823 67.2827 281.587 67.7369C282.337 68.1837 282.936 68.8457 283.306 69.6369C283.707 70.5293 283.905 71.4998 283.884 72.4779C283.973 73.9364 283.482 75.3711 282.518 76.4689C282.067 76.9335 281.523 77.2991 280.923 77.5425C280.323 77.7859 279.678 77.9019 279.031 77.8829M279.058 67.4409C277.889 67.4211 276.758 67.8506 275.897 68.6409C275.025 69.4279 274.583 70.7829 274.583 72.6609C274.548 73.3065 274.641 73.9526 274.859 74.5615C275.076 75.1704 275.413 75.7298 275.849 76.2069C276.707 77.0346 277.853 77.4963 279.045 77.4944C280.238 77.4926 281.382 77.0273 282.238 76.1969C283.132 75.171 283.584 73.8337 283.497 72.4759C283.519 71.5559 283.334 70.6427 282.955 69.8039C282.618 69.0788 282.072 68.471 281.387 68.0589C280.682 67.6435 279.877 67.4288 279.059 67.4379" fill="#0052A3"/>
<path d="M294.245 73.864V72.35L300.013 72.337V77.137C299.183 77.7785 298.258 78.2885 297.273 78.649C296.343 78.9859 295.362 79.1584 294.373 79.159C293.111 79.1765 291.863 78.8959 290.73 78.34C289.676 77.8351 288.809 77.0093 288.253 75.981C287.688 74.9205 287.401 73.7344 287.418 72.533C287.41 71.3092 287.695 70.1013 288.249 69.01C288.761 67.9626 289.601 67.1107 290.641 66.583C291.758 66.0367 292.99 65.7652 294.233 65.791C295.144 65.7777 296.049 65.9308 296.905 66.243C297.627 66.4976 298.272 66.9343 298.776 67.511C299.268 68.134 299.62 68.8557 299.808 69.627L298.181 70.05C298.025 69.4891 297.767 68.9621 297.418 68.496C297.069 68.0896 296.621 67.7797 296.118 67.596C295.52 67.3648 294.884 67.2501 294.243 67.258C293.515 67.2421 292.791 67.3633 292.108 67.615C291.56 67.8168 291.064 68.1379 290.655 68.555C290.295 68.9268 290.004 69.3591 289.795 69.832C289.445 70.6536 289.268 71.5389 289.277 72.432C289.243 73.4333 289.458 74.4273 289.903 75.325C290.305 76.0852 290.946 76.6925 291.726 77.054C292.522 77.4291 293.393 77.6215 294.273 77.617C295.054 77.6157 295.829 77.4713 296.558 77.191C297.166 76.9798 297.736 76.6714 298.246 76.278V73.864H294.245Z" fill="#0052A3"/>
<path d="M294.378 79.35C293.086 79.3644 291.808 79.0782 290.646 78.514C289.558 77.989 288.662 77.1351 288.086 76.073C287.506 74.983 287.211 73.7645 287.227 72.53C287.221 71.277 287.513 70.0405 288.08 68.923C288.611 67.8391 289.479 66.9568 290.555 66.409C291.7 65.8483 292.962 65.5686 294.236 65.593C295.17 65.5802 296.099 65.7388 296.976 66.061C297.729 66.3256 298.401 66.7803 298.926 67.381C299.435 68.026 299.801 68.7728 299.997 69.571L300.047 69.76L298.055 70.28L298 70.104C297.85 69.5677 297.603 69.0635 297.271 68.616C296.944 68.2346 296.524 67.9436 296.052 67.771C295.478 67.5476 294.867 67.4362 294.252 67.443C293.548 67.4271 292.847 67.5438 292.186 67.787C291.666 67.9814 291.194 68.2865 290.804 68.681C290.462 69.0384 290.183 69.4517 289.98 69.903C289.642 70.7018 289.471 71.5616 289.48 72.429C289.447 73.3975 289.653 74.3591 290.08 75.229C290.465 75.9517 291.075 76.5291 291.818 76.874C292.549 77.2093 293.339 77.3937 294.143 77.416C294.947 77.4384 295.747 77.2982 296.495 77.004C297.055 76.8073 297.583 76.5289 298.062 76.178V74.055H294.062V72.155L300.213 72.142V77.235L300.136 77.293C299.288 77.944 298.347 78.4632 297.344 78.833C296.395 79.1758 295.394 79.3511 294.385 79.351M294.243 65.98C293.031 65.9566 291.832 66.2215 290.743 66.753C289.741 67.2639 288.931 68.0861 288.436 69.096C287.898 70.1607 287.62 71.3381 287.627 72.531C287.612 73.7005 287.891 74.855 288.44 75.888C288.977 76.8794 289.812 77.6765 290.828 78.166C291.937 78.7068 293.156 78.9808 294.39 78.966C295.355 78.9634 296.312 78.7943 297.219 78.466C298.154 78.1203 299.033 77.6395 299.829 77.039V72.531L294.451 72.541V73.669H298.451V76.363L298.384 76.419C297.857 76.8275 297.267 77.148 296.638 77.368C295.841 77.6805 294.988 77.8288 294.132 77.8043C293.276 77.7797 292.434 77.5827 291.656 77.225C290.838 76.8449 290.167 76.2083 289.744 75.412C289.284 74.4866 289.061 73.4617 289.095 72.429C289.088 71.509 289.27 70.5974 289.631 69.751C289.851 69.2567 290.156 68.8046 290.531 68.415C290.963 67.9809 291.482 67.6441 292.055 67.427C292.761 67.1672 293.51 67.0417 294.263 67.057C294.929 67.0499 295.589 67.1701 296.21 67.411C296.745 67.6076 297.22 67.939 297.589 68.373C297.917 68.8064 298.167 69.2937 298.327 69.813L299.583 69.485C299.399 68.8105 299.079 68.1804 298.644 67.633C298.162 67.0824 297.544 66.6668 296.853 66.427C296.021 66.1206 295.14 65.9697 294.253 65.982" fill="#0052A3"/>
<path d="M306.503 78.9341V73.4591L301.257 66.0071H303.449L306.131 69.9071C306.627 70.6344 307.089 71.3634 307.516 72.0941C307.925 71.4147 308.42 70.6534 309.001 69.8101L311.639 66.0101H313.739L308.304 73.4591V78.9361L306.503 78.9341Z" fill="#0052A3"/>
<path d="M308.496 79.129H306.31V73.52L300.883 65.814H303.55L306.29 69.797C306.722 70.431 307.133 71.078 307.516 71.718C307.888 71.118 308.323 70.454 308.84 69.7L311.54 65.817H314.12L308.5 73.526L308.496 79.129ZM306.696 78.742H308.111V73.397L308.145 73.345L313.353 66.197H311.738L309.159 69.915C308.564 70.779 308.082 71.523 307.682 72.19L307.513 72.469L307.349 72.186C306.923 71.458 306.458 70.729 305.969 70.009L303.345 66.197H301.629L306.696 73.397V78.742Z" fill="#0052A3"/>
<path d="M326.661 73.864V72.35L332.428 72.337V77.137C331.598 77.7787 330.674 78.2886 329.689 78.649C328.759 78.9859 327.778 79.1585 326.789 79.159C325.527 79.1765 324.279 78.8959 323.146 78.34C322.092 77.8351 321.225 77.0093 320.669 75.981C320.104 74.9207 319.817 73.7344 319.834 72.533C319.826 71.3092 320.111 70.1013 320.665 69.01C321.177 67.9625 322.017 67.1104 323.057 66.583C324.174 66.0367 325.406 65.7652 326.649 65.791C327.56 65.7775 328.465 65.9307 329.321 66.243C330.043 66.4974 330.687 66.9342 331.191 67.511C331.684 68.1337 332.036 68.8555 332.224 69.627L330.597 70.05C330.442 69.4891 330.183 68.9621 329.835 68.496C329.486 68.0897 329.038 67.7798 328.535 67.596C327.937 67.3649 327.299 67.2502 326.658 67.258C325.93 67.2421 325.206 67.3633 324.523 67.615C323.975 67.8168 323.479 68.1379 323.07 68.555C322.711 68.9268 322.419 69.3591 322.21 69.832C321.86 70.6536 321.683 71.5389 321.692 72.432C321.658 73.4333 321.873 74.4274 322.318 75.325C322.72 76.085 323.36 76.6924 324.14 77.054C324.936 77.4291 325.807 77.6215 326.687 77.617C327.468 77.6157 328.243 77.4713 328.972 77.191C329.58 76.9802 330.151 76.6718 330.66 76.278V73.864H326.661Z" fill="#0052A3"/>
<path d="M326.79 79.35C325.499 79.3642 324.222 79.078 323.061 78.514C321.973 77.9893 321.077 77.1353 320.501 76.073C319.92 74.9834 319.625 73.7646 319.642 72.53C319.635 71.277 319.927 70.0403 320.494 68.923C321.025 67.8387 321.893 66.9561 322.969 66.408C324.114 65.8474 325.376 65.5677 326.65 65.592C327.584 65.5792 328.513 65.7378 329.39 66.06C330.143 66.3244 330.815 66.7791 331.34 67.38C331.85 68.0248 332.214 68.7717 332.409 69.57L332.461 69.759L330.468 70.279L330.414 70.103C330.264 69.5668 330.017 69.0625 329.685 68.615C329.358 68.2336 328.938 67.9427 328.466 67.77C327.893 67.5466 327.282 67.4352 326.666 67.442C325.962 67.4261 325.261 67.5428 324.6 67.786C324.08 67.9801 323.608 68.2852 323.217 68.68C322.875 69.0375 322.596 69.4507 322.393 69.902C322.055 70.7008 321.885 71.5606 321.893 72.428C321.861 73.3964 322.067 74.358 322.493 75.228C322.878 75.9501 323.488 76.5275 324.23 76.873C325.243 77.3031 326.35 77.4646 327.444 77.342C328.538 77.2194 329.581 76.8168 330.474 76.173V74.055H326.474V72.155L332.624 72.142V77.235L332.548 77.293C331.701 77.944 330.76 78.4631 329.758 78.833C328.808 79.176 327.805 79.3512 326.795 79.351M326.655 65.98C325.444 65.9566 324.244 66.2215 323.155 66.753C322.153 67.264 321.343 68.0861 320.848 69.096C320.31 70.1607 320.033 71.3381 320.039 72.531C320.024 73.7006 320.303 74.855 320.852 75.888C321.389 76.8796 322.224 77.6767 323.24 78.166C324.348 78.7067 325.567 78.9807 326.799 78.966C327.765 78.9637 328.724 78.7945 329.632 78.466C330.567 78.1201 331.446 77.6394 332.241 77.039V72.531L326.863 72.541V73.669H330.863V76.363L330.795 76.419C330.268 76.8275 329.678 77.148 329.049 77.368C328.252 77.6805 327.399 77.8289 326.543 77.8043C325.687 77.7797 324.845 77.5827 324.067 77.225C323.249 76.8448 322.578 76.2083 322.154 75.412C321.695 74.4864 321.473 73.4616 321.506 72.429C321.499 71.509 321.681 70.5974 322.042 69.751C322.262 69.2568 322.567 68.8047 322.942 68.415C323.373 67.9809 323.892 67.6441 324.464 67.427C325.171 67.1674 325.919 67.0419 326.672 67.057C327.338 67.0499 327.999 67.1701 328.619 67.411C329.154 67.6076 329.629 67.939 329.998 68.373C330.326 68.8064 330.576 69.2937 330.736 69.813L331.992 69.485C331.808 68.8105 331.488 68.1804 331.053 67.633C330.571 67.0826 329.954 66.667 329.262 66.427C328.43 66.1205 327.549 65.9697 326.662 65.982" fill="#0052A3"/>
<path d="M335.11 78.9381V66.0061H341.146C342.081 65.9685 343.017 66.0858 343.914 66.3531C344.542 66.5828 345.074 67.0166 345.426 67.5851C345.803 68.1654 346.001 68.8441 345.994 69.5361C346.004 69.9658 345.926 70.3929 345.765 70.7914C345.603 71.1898 345.363 71.5511 345.057 71.8531C344.249 72.5617 343.229 72.9836 342.157 73.0531C342.546 73.2177 342.912 73.4326 343.245 73.6921C343.812 74.2019 344.314 74.7807 344.738 75.4151L347.105 78.9351H344.84L343.04 76.2431C342.513 75.4658 342.079 74.8708 341.74 74.4581C341.483 74.1247 341.175 73.8341 340.828 73.5971C340.573 73.4393 340.295 73.3231 340.004 73.2531C339.673 73.2026 339.338 73.1819 339.004 73.1911H336.914V78.9351L335.11 78.9381ZM336.91 71.7121H340.781C341.434 71.7359 342.086 71.6535 342.713 71.4681C343.125 71.3403 343.486 71.0835 343.742 70.7357C343.998 70.3878 344.136 69.967 344.135 69.5351C344.141 69.2471 344.082 68.9614 343.96 68.7001C343.839 68.4388 343.659 68.2089 343.435 68.0281C342.789 67.5793 342.006 67.37 341.222 67.4361H336.913L336.91 71.7121Z" fill="#0052A3"/>
<path d="M347.471 79.1291H344.736L342.88 76.3531C342.365 75.5961 341.931 75.0021 341.59 74.5881C341.347 74.2704 341.055 73.993 340.725 73.7661C340.489 73.6182 340.231 73.5095 339.96 73.4441C339.643 73.3985 339.322 73.3791 339.002 73.3861H337.102V79.1291H334.916V65.8141H341.145C342.103 65.7741 343.06 65.8951 343.978 66.1721C344.646 66.4173 345.212 66.8779 345.589 67.4811C345.983 68.0936 346.189 68.8079 346.183 69.5361C346.194 69.9908 346.111 70.4429 345.94 70.8646C345.77 71.2862 345.515 71.6686 345.191 71.9881C344.519 72.6065 343.677 73.0107 342.774 73.1491C342.985 73.2627 343.184 73.3967 343.369 73.5491C343.951 74.0683 344.465 74.6586 344.9 75.3061L347.471 79.1291ZM344.944 78.7421H346.744L344.58 75.5251C344.165 74.9049 343.673 74.3394 343.117 73.8421C342.799 73.5928 342.449 73.3873 342.077 73.2311L341.463 72.9481L342.134 72.8641C343.163 72.798 344.141 72.3949 344.918 71.7171C345.205 71.4326 345.432 71.0926 345.584 70.7179C345.735 70.3431 345.809 69.9414 345.801 69.5371C345.806 68.8822 345.619 68.2402 345.264 67.6901C344.934 67.158 344.436 66.7517 343.848 66.5361C342.972 66.2785 342.06 66.1657 341.148 66.2021H335.304V78.7421H336.716V73.0021H338.998C339.346 72.9923 339.694 73.0141 340.038 73.0671C340.352 73.141 340.651 73.2653 340.925 73.4351C341.291 73.6822 341.616 73.986 341.886 74.3351C342.235 74.7601 342.677 75.3661 343.197 76.1351L344.944 78.7421ZM340.782 71.9041H336.716V67.2441H341.216C342.046 67.18 342.872 67.4035 343.556 67.8771C343.802 68.0769 343.999 68.33 344.132 68.6173C344.265 68.9047 344.331 69.2185 344.324 69.5351C344.325 69.9877 344.187 70.4297 343.93 70.8021C343.648 71.2051 343.242 71.5044 342.773 71.6541C342.124 71.8444 341.449 71.9288 340.773 71.9041M337.096 71.5171H340.773C341.404 71.5392 342.034 71.4612 342.641 71.2861C343.015 71.1706 343.342 70.9383 343.575 70.6231C343.807 70.308 343.932 69.9266 343.932 69.5351C343.938 69.2748 343.885 69.0165 343.775 68.7801C343.666 68.5438 343.504 68.3358 343.301 68.1721C342.687 67.757 341.95 67.5643 341.211 67.6261H337.106L337.096 71.5171Z" fill="#0052A3"/>
<path d="M348.27 72.6391C348.216 71.7194 348.35 70.7983 348.662 69.9317C348.975 69.0652 349.461 68.2713 350.09 67.5981C350.708 66.9902 351.444 66.5152 352.252 66.2022C353.06 65.8892 353.924 65.7449 354.79 65.7781C355.979 65.7595 357.151 66.0544 358.19 66.6331C359.178 67.1826 359.98 68.0126 360.496 69.0181C361.039 70.0932 361.312 71.2847 361.29 72.4891C361.311 73.7139 361.024 74.9244 360.455 76.0091C359.925 77.0161 359.099 77.8363 358.088 78.3591C357.067 78.8904 355.932 79.165 354.781 79.1591C353.577 79.1795 352.39 78.8751 351.345 78.2781C350.362 77.7175 349.565 76.8801 349.054 75.8701C348.538 74.873 348.27 73.7659 348.274 72.6431M350.13 72.6691C350.093 73.3401 350.191 74.0117 350.419 74.6441C350.646 75.2765 350.998 75.857 351.453 76.3511C352.348 77.2162 353.545 77.6987 354.79 77.6962C356.035 77.6938 357.23 77.2067 358.122 76.3381C359.053 75.278 359.525 73.892 359.435 72.4841C359.457 71.5344 359.264 70.5919 358.871 69.7271C358.518 68.9682 357.945 68.3331 357.226 67.9041C356.493 67.4665 355.652 67.2415 354.798 67.2541C353.581 67.232 352.402 67.6788 351.505 68.5021C350.585 69.3348 350.126 70.7238 350.127 72.6691" fill="#0052A3"/>
<path d="M354.777 79.3512C353.539 79.3703 352.319 79.056 351.244 78.4412C350.23 77.8595 349.408 76.9954 348.877 75.9542C348.349 74.9292 348.074 73.7923 348.077 72.6392C348.026 71.6945 348.165 70.7492 348.487 69.8597C348.809 68.9701 349.308 68.1547 349.952 67.4622C350.589 66.8381 351.345 66.35 352.176 66.0277C353.007 65.7054 353.895 65.5555 354.786 65.5872C356.009 65.5702 357.216 65.8724 358.286 66.4642C359.307 67.0328 360.136 67.8914 360.668 68.9312C361.225 70.0336 361.506 71.2551 361.486 72.4902C361.506 73.7464 361.211 74.9876 360.627 76.1002C360.078 77.1416 359.223 77.9901 358.178 78.5322C357.128 79.0766 355.961 79.3577 354.778 79.3512M354.787 65.9702C353.947 65.9395 353.11 66.0802 352.326 66.3836C351.542 66.687 350.828 67.1469 350.228 67.7352C349.62 68.3914 349.15 69.1636 348.847 70.0055C348.544 70.8474 348.413 71.7417 348.463 72.6352C348.463 73.7273 348.723 74.8037 349.222 75.7752C349.719 76.7497 350.49 77.5583 351.439 78.1022C352.455 78.6813 353.608 78.9773 354.777 78.9592C355.897 78.9653 357.002 78.6986 357.996 78.1822C358.971 77.6749 359.769 76.8823 360.282 75.9102C360.833 74.8536 361.112 73.6765 361.093 72.4852C361.113 71.3115 360.848 70.1506 360.32 69.1022C359.821 68.1322 359.045 67.3319 358.091 66.8022C357.083 66.2408 355.945 65.9535 354.791 65.9692M354.773 77.8842C354.132 77.9004 353.493 77.7845 352.899 77.5437C352.304 77.3029 351.765 76.9422 351.315 76.4842C350.842 75.9716 350.477 75.3697 350.24 74.7139C350.004 74.058 349.901 73.3614 349.937 72.6652C349.937 70.6702 350.421 69.2202 351.378 68.3532C352.312 67.5009 353.537 67.0382 354.801 67.0602C355.69 67.048 356.565 67.2819 357.329 67.7362C358.08 68.1829 358.678 68.8449 359.048 69.6362C359.449 70.5285 359.647 71.499 359.626 72.4772C359.715 73.9356 359.224 75.3703 358.26 76.4682C357.809 76.9328 357.265 77.2985 356.665 77.5419C356.064 77.7854 355.42 77.9012 354.772 77.8822M354.8 67.4402C353.632 67.4203 352.5 67.8499 351.639 68.6402C350.767 69.4272 350.325 70.7822 350.325 72.6602C350.29 73.3057 350.383 73.9519 350.601 74.5607C350.818 75.1696 351.155 75.729 351.591 76.2062C352.449 77.0338 353.595 77.4955 354.788 77.4936C355.98 77.4918 357.125 77.0265 357.98 76.1962C358.874 75.1703 359.326 73.833 359.239 72.4752C359.261 71.5551 359.076 70.642 358.697 69.8032C358.36 69.078 357.814 68.4703 357.129 68.0582C356.424 67.6425 355.619 67.4278 354.801 67.4372" fill="#0052A3"/>
<path d="M372.541 66.0061H374.341V73.4781C374.38 74.5311 374.223 75.5822 373.879 76.5781C373.543 77.3688 372.952 78.0243 372.2 78.4401C371.225 78.961 370.127 79.209 369.022 79.1581C367.944 79.2003 366.871 78.9853 365.893 78.5311C365.118 78.1521 364.502 77.5103 364.156 76.7201C363.768 75.6857 363.591 74.584 363.636 73.4801V66.0061H365.436V73.4681C365.395 74.3089 365.506 75.1501 365.765 75.9511C365.986 76.4825 366.387 76.9189 366.898 77.1831C367.507 77.487 368.181 77.6357 368.861 77.6161C369.882 77.7173 370.902 77.4091 371.696 76.7591C372.259 76.1911 372.541 75.0921 372.541 73.4701V66.0061Z" fill="#0052A3"/>
<path d="M369.021 79.35C367.913 79.3898 366.811 79.1682 365.805 78.703C364.991 78.3021 364.345 77.6272 363.98 76.797C363.581 75.738 363.399 74.6097 363.444 73.479V65.814H365.632V73.467C365.591 74.2819 365.697 75.0976 365.945 75.875C366.15 76.3641 366.521 76.7655 366.992 77.009C367.573 77.2974 368.216 77.4382 368.864 77.419C369.834 77.5154 370.803 77.2283 371.564 76.619C372.2 75.6984 372.48 74.5778 372.352 73.466V65.814H374.541V73.477C374.58 74.5539 374.418 75.6286 374.063 76.646C373.712 77.4758 373.094 78.1644 372.306 78.602C371.299 79.1404 370.166 79.3987 369.025 79.35M363.829 66.197V73.477C363.784 74.554 363.954 75.6292 364.329 76.64C364.659 77.389 365.242 77.9977 365.977 78.359C366.929 78.7939 367.969 78.9994 369.015 78.959C370.086 79.0065 371.15 78.7665 372.097 78.264C372.814 77.871 373.377 77.2482 373.697 76.496C374.032 75.5249 374.183 74.5003 374.145 73.474V66.197H372.733V73.467C372.733 75.16 372.439 76.282 371.833 76.893C371.001 77.5768 369.933 77.9049 368.86 77.806C368.148 77.826 367.441 77.6697 366.804 77.351C366.254 77.0674 365.822 76.5974 365.586 76.025C365.315 75.2007 365.199 74.3335 365.243 73.467V66.197H363.829Z" fill="#0052A3"/>
<path d="M377.341 78.9351V66.0091H382.476C383.169 65.9941 383.861 66.0352 384.547 66.1321C385.144 66.2105 385.717 66.4151 386.229 66.7321C386.694 67.0472 387.069 67.4767 387.319 67.9791C387.597 68.5257 387.738 69.1311 387.732 69.7441C387.743 70.2597 387.651 70.7723 387.462 71.2517C387.272 71.7312 386.988 72.1679 386.627 72.5361C385.894 73.2968 384.563 73.6771 382.635 73.6771H379.142V78.9331L377.341 78.9351ZM379.141 72.1551H382.661C383.533 72.2344 384.407 72.017 385.14 71.5381C385.387 71.3233 385.581 71.0551 385.708 70.7539C385.835 70.4527 385.891 70.1265 385.873 69.8001C385.887 69.3022 385.735 68.8139 385.44 68.4121C385.162 68.0333 384.76 67.7635 384.304 67.6491C383.75 67.5519 383.187 67.5137 382.624 67.5351H379.142L379.141 72.1551Z" fill="#0052A3"/>
<path d="M379.335 79.1291H377.149V65.8141H382.477C383.179 65.7989 383.881 65.8401 384.577 65.9371C385.201 66.0224 385.8 66.2399 386.333 66.5751C386.829 66.9059 387.228 67.362 387.49 67.8971C387.782 68.4708 387.931 69.1064 387.925 69.7501C387.935 70.2905 387.838 70.8276 387.64 71.3303C387.441 71.8329 387.144 72.291 386.767 72.6781C385.997 73.4701 384.604 73.8781 382.633 73.8781H379.333L379.335 79.1291ZM377.535 78.7421H378.949V73.4841H382.632C384.496 73.4841 385.793 73.1201 386.487 72.4051C386.829 72.0536 387.098 71.6377 387.279 71.1814C387.459 70.7252 387.547 70.2377 387.538 69.7471C387.543 69.1647 387.408 68.5896 387.145 68.0701C386.911 67.5964 386.557 67.192 386.119 66.8971C385.632 66.5946 385.087 66.3984 384.519 66.3211C383.844 66.2269 383.162 66.1868 382.481 66.2011H377.539L377.535 78.7421ZM382.661 72.3421H378.95V67.3411H382.626C383.204 67.3192 383.784 67.3584 384.354 67.4581C384.853 67.5845 385.294 67.8799 385.6 68.2941C385.917 68.7291 386.082 69.2561 386.07 69.7941C386.088 70.1484 386.026 70.5022 385.887 70.8288C385.749 71.1554 385.537 71.4462 385.27 71.6791C384.504 72.1888 383.587 72.4226 382.67 72.3421M379.343 71.9551H382.67C383.496 72.0325 384.324 71.8312 385.023 71.3831C385.247 71.1869 385.423 70.9418 385.536 70.6668C385.65 70.3917 385.699 70.0942 385.68 69.7971C385.692 69.3422 385.554 68.8959 385.288 68.5271C385.038 68.1807 384.671 67.9352 384.256 67.8351C383.718 67.7421 383.172 67.7049 382.626 67.7241H379.335L379.343 71.9551Z" fill="#0052A3"/>
<path fill-rule="evenodd" clip-rule="evenodd" d="M66.605 73.322H51.962V58.51C51.8578 56.6615 51.0656 54.9189 49.7413 53.6252C48.417 52.3314 46.6564 51.58 44.806 51.519H29.831C26.006 51.519 22.343 54.847 22.343 58.51V73.487H7.53296V14.749H22.342V36.71H55.456C60.78 36.71 66.604 42.7 66.604 48.023L66.605 73.322Z" fill="white"/>
<path fill-rule="evenodd" clip-rule="evenodd" d="M44.6 7.41895V29.3819H29.786V7.41895H0.168L0 80.7999H29.62V58.6669H44.265L44.43 80.6299H74.047V7.41895H44.6ZM66.559 73.3109H51.918V58.5019C51.8138 56.6535 51.0217 54.9109 49.6973 53.6171C48.373 52.3233 46.6124 51.572 44.762 51.5109H29.786C25.96 51.5109 22.298 54.8379 22.298 58.5019V73.4759H7.487V14.7389H22.3V36.7039H55.411C60.734 36.7039 66.558 42.6929 66.558 48.0219L66.559 73.3109Z" fill="#E73534"/>
<path d="M80.132 2.75216H84.214C84.7829 2.73371 85.3495 2.83348 85.878 3.04516C86.2757 3.21728 86.6094 3.50976 86.8322 3.88144C87.055 4.25311 87.1556 4.68529 87.12 5.11716C87.1402 5.57158 87.0246 6.02172 86.788 6.41016C86.5536 6.75635 86.2321 7.03469 85.856 7.21716C86.1637 7.32732 86.4368 7.51669 86.648 7.76616C86.8561 8.09443 86.9606 8.4777 86.948 8.86616L86.99 10.0422C86.9934 10.2933 87.0215 10.5435 87.074 10.7892C87.093 10.9031 87.1384 11.0111 87.2064 11.1044C87.2745 11.1978 87.3633 11.2741 87.466 11.3272V11.5272H85.974C85.9256 11.4353 85.8919 11.3364 85.874 11.2342C85.8403 11.0045 85.8203 10.7731 85.814 10.5412L85.739 9.07816C85.7535 8.84553 85.7014 8.61357 85.589 8.4094C85.4766 8.20522 85.3083 8.03727 85.104 7.92516C84.7649 7.79864 84.4033 7.74382 84.042 7.76416H81.349V11.5262H80.132V2.75216ZM84.084 6.77016C84.5468 6.79471 85.0061 6.67787 85.401 6.43516C85.575 6.29114 85.7104 6.10599 85.7949 5.89646C85.8795 5.68694 85.9104 5.45965 85.885 5.23516C85.9112 4.9792 85.8608 4.72123 85.7403 4.49391C85.6198 4.26658 85.4345 4.08013 85.208 3.95816C84.903 3.8258 84.5721 3.76426 84.24 3.77816H81.349V6.77816L84.084 6.77016Z" fill="#E73534"/>
<path d="M83.264 13.4681C82.0111 13.4682 80.7864 13.0969 79.7446 12.401C78.7028 11.7051 77.8908 10.7159 77.4113 9.55843C76.9318 8.401 76.8062 7.12736 77.0506 5.89859C77.295 4.66983 77.8983 3.54112 78.7841 2.65524C79.67 1.76935 80.7987 1.16608 82.0275 0.921709C83.2563 0.677342 84.5299 0.802861 85.6873 1.28239C86.8448 1.76192 87.834 2.57392 88.5299 3.61569C89.2258 4.65747 89.5972 5.88222 89.597 7.13505C89.5946 8.81394 88.9266 10.4234 87.7394 11.6105C86.5523 12.7977 84.9428 13.4657 83.264 13.4681ZM83.264 1.25305C82.1008 1.25285 80.9637 1.59758 79.9965 2.24362C79.0292 2.88967 78.2753 3.80803 77.83 4.88257C77.3847 5.9571 77.268 7.13956 77.4948 8.2804C77.7215 9.42124 78.2814 10.4692 79.1038 11.2918C79.9261 12.1145 80.9739 12.6747 82.1146 12.9019C83.2554 13.129 84.4379 13.0127 85.5126 12.5678C86.5873 12.1228 87.5059 11.3692 88.1523 10.4022C88.7986 9.43518 89.1438 8.2982 89.144 7.13505C89.1424 5.57588 88.5224 4.081 87.4201 2.97831C86.3178 1.87562 84.8231 1.25517 83.264 1.25305Z" fill="#E73534"/>
</g>
</svg>
